# xmcd
#
# Track frame offsets: 
#        150
#        23845
#        42705
#        68065
#        83450
#        109145
#        133160
#        151665
#        173070
#        193730
#        215810
#
# Disc length: 3161 seconds
#
# Revision: 0
# Processed by: cddbd v1.4PL0 Copyright (c) Steve Scherf et al.
# Submitted via: ExactAudioCopy v0.95a4
#
DISCID=950c570b
DTITLE=Barn Burning - Barn Burning
DYEAR=2003
DGENRE=Folk
TTITLE0=Flown
TTITLE1=Preparations For Winter
TTITLE2=Streetlight
TTITLE3=Out The Window
TTITLE4=The Troubles
TTITLE5=Weatheredbound
TTITLE6=Windshield
TTITLE7=Not Falling
TTITLE8=Dead Horse Waltz
TTITLE9=100,000 Light Years
TTITLE10=Hidden...
EXTD=
EXTT0=
EXTT1=
EXTT2=
EXTT3=
EXTT4=
EXTT5=
EXTT6=
EXTT7=
EXTT8=
EXTT9=
EXTT10=
PLAYORDER=
